<?xml version="1.0" encoding="UTF-8" standalone="no"?>
<svg
   xmlns:dc="http://purl.org/dc/elements/1.1/"
   xmlns:cc="http://creativecommons.org/ns#"
   xmlns:rdf="http://www.w3.org/1999/02/22-rdf-syntax-ns#"
   xmlns:svg="http://www.w3.org/2000/svg"
   xmlns="http://www.w3.org/2000/svg"
   xmlns:sodipodi="http://sodipodi.sourceforge.net/DTD/sodipodi-0.dtd"
   xmlns:inkscape="http://www.inkscape.org/namespaces/inkscape"
   width="19.5"
   height="14.066"
   viewBox="0 0 19.5 14.066"
   version="1.1"
   id="svg3"
   sodipodi:docname="check.svg"
   inkscape:version="0.92.4 (5da689c313, 2019-01-14)">
  <metadata
     id="metadata9">
    <rdf:RDF>
      <cc:Work
         rdf:about="">
        <dc:format>image/svg+xml</dc:format>
        <dc:type
           rdf:resource="http://purl.org/dc/dcmitype/StillImage" />
        <dc:title></dc:title>
      </cc:Work>
    </rdf:RDF>
  </metadata>
  <defs
     id="defs7" />
  <sodipodi:namedview
     pagecolor="#ffffff"
     bordercolor="#666666"
     borderopacity="1"
     objecttolerance="10"
     gridtolerance="10"
     guidetolerance="10"
     inkscape:pageopacity="0"
     inkscape:pageshadow="2"
     inkscape:window-width="1360"
     inkscape:window-height="705"
     id="namedview5"
     showgrid="false"
     inkscape:zoom="67.112185"
     inkscape:cx="4.6772342"
     inkscape:cy="2.3125608"
     inkscape:window-x="-8"
     inkscape:window-y="-8"
     inkscape:window-maximized="1"
     inkscape:current-layer="svg3" />
  <path
     id="Check"
     d="m 19.179778,0.3020233 a 1.018,1.018 0 0 0 -0.749,-0.3 1.1,1.1 0 0 0 -0.774,0.3 L 6.5097776,11.445025 l -4.65,-4.6430016 a 1.1,1.1 0 0 0 -0.774,-0.3 1.018,1.018 0 0 0 -0.74900006,0.3 1.06,1.06 0 0 0 -0.33,0.774 0.98,0.98 0 0 0 0.33,0.749 L 5.7447776,13.759025 a 0.987,0.987 0 0 0 0.355,0.229 1.15,1.15 0 0 0 0.406,0.076 1.15,1.15 0 0 0 0.406,-0.076 0.987,0.987 0 0 0 0.355,-0.229 L 19.179778,1.8220234 a 0.98,0.98 0 0 0 0.33,-0.749 1.06,1.06 0 0 0 -0.33,-0.7710001 z"
     inkscape:connector-curvature="0" />
</svg>
