<?xml version="1.0" encoding="UTF-8" standalone="no"?>
<svg
   xmlns:dc="http://purl.org/dc/elements/1.1/"
   xmlns:cc="http://creativecommons.org/ns#"
   xmlns:rdf="http://www.w3.org/1999/02/22-rdf-syntax-ns#"
   xmlns:svg="http://www.w3.org/2000/svg"
   xmlns="http://www.w3.org/2000/svg"
   xmlns:sodipodi="http://sodipodi.sourceforge.net/DTD/sodipodi-0.dtd"
   xmlns:inkscape="http://www.inkscape.org/namespaces/inkscape"
   width="10.8"
   height="14.024"
   viewBox="0 0 10.8 14.024"
   version="1.1"
   id="svg4"
   sodipodi:docname="lock.svg"
   inkscape:version="0.92.4 (5da689c313, 2019-01-14)">
  <metadata
     id="metadata10">
    <rdf:RDF>
      <cc:Work
         rdf:about="">
        <dc:format>image/svg+xml</dc:format>
        <dc:type
           rdf:resource="http://purl.org/dc/dcmitype/StillImage" />
        <dc:title></dc:title>
      </cc:Work>
    </rdf:RDF>
  </metadata>
  <defs
     id="defs8" />
  <sodipodi:namedview
     pagecolor="#ffffff"
     bordercolor="#666666"
     borderopacity="1"
     objecttolerance="10"
     gridtolerance="10"
     guidetolerance="10"
     inkscape:pageopacity="0"
     inkscape:pageshadow="2"
     inkscape:window-width="1360"
     inkscape:window-height="705"
     id="namedview6"
     showgrid="false"
     inkscape:zoom="95.195207"
     inkscape:cx="2.3650835"
     inkscape:cy="1.0930017"
     inkscape:window-x="-8"
     inkscape:window-y="-8"
     inkscape:window-maximized="1"
     inkscape:current-layer="svg4" />
  <path
     d="m 5.2487978,11.839795 a 0.485,0.485 0 0 0 0.484,-0.484 V 9.8247953 a 0.484,0.484 0 1 0 -0.967,0 v 1.5309997 a 0.485,0.485 0 0 0 0.483,0.484 z m -3.2400001,2.177 h 6.8000001 a 1.978,1.978 0 0 0 2.0000002,-1.975 V 7.6257956 a 1.955,1.955 0 0 0 -1.4510002,-1.91 v -2.123 a 3.574,3.574 0 0 0 -3.545,-3.60000003 h -0.806 A 3.6,3.6 0 0 0 1.4197977,3.5877956 v 2.127 l 0.588,-0.081 c 0.266,0 0.379,-1.789 0.379,-2.055 A 2.625,2.625 0 0 1 5.0067978,0.95979557 h 0.806 a 2.6,2.6 0 0 1 2.579,2.63300003 v 2.042 H 2.0087977 a 2,2 0 0 0 -1.99999991,2 v 4.4169994 a 1.976,1.976 0 0 0 1.99999991,1.965 z m 7.8340001,-2 a 1.028,1.028 0 0 1 -1.032,1.032 H 2.0107977 a 1.028,1.028 0 0 1 -1.03199992,-1.032 V 7.6337956 a 1.028,1.028 0 0 1 1.03199992,-1.032 h 6.8000001 a 1.028,1.028 0 0 1 1.033,1.032 v 4.3839994 z"
     id="path2"
     inkscape:connector-curvature="0" />
</svg>
