<?xml version="1.0" encoding="UTF-8" standalone="no"?>
<svg
   xmlns:dc="http://purl.org/dc/elements/1.1/"
   xmlns:cc="http://creativecommons.org/ns#"
   xmlns:rdf="http://www.w3.org/1999/02/22-rdf-syntax-ns#"
   xmlns:svg="http://www.w3.org/2000/svg"
   xmlns="http://www.w3.org/2000/svg"
   xmlns:sodipodi="http://sodipodi.sourceforge.net/DTD/sodipodi-0.dtd"
   xmlns:inkscape="http://www.inkscape.org/namespaces/inkscape"
   width="22"
   height="22"
   viewBox="0 0 22 22"
   id="Settings"
   version="1.1"
   sodipodi:docname="settings.svg"
   inkscape:version="0.92.4 (5da689c313, 2019-01-14)">
  <metadata
     id="metadata9">
    <rdf:RDF>
      <cc:Work
         rdf:about="">
        <dc:format>image/svg+xml</dc:format>
        <dc:type
           rdf:resource="http://purl.org/dc/dcmitype/StillImage" />
      </cc:Work>
    </rdf:RDF>
  </metadata>
  <defs
     id="defs7" />
  <sodipodi:namedview
     pagecolor="#ffffff"
     bordercolor="#666666"
     borderopacity="1"
     objecttolerance="10"
     gridtolerance="10"
     guidetolerance="10"
     inkscape:pageopacity="0"
     inkscape:pageshadow="2"
     inkscape:window-width="1360"
     inkscape:window-height="705"
     id="namedview5"
     showgrid="false"
     inkscape:zoom="10.727273"
     inkscape:cx="11"
     inkscape:cy="18.457627"
     inkscape:window-x="-8"
     inkscape:window-y="-8"
     inkscape:window-maximized="1"
     inkscape:current-layer="Settings" />
  <path
     id="Fon"
     d="m 10.988281,1.8496094 a 0.867,0.867 0 0 0 -0.08594,0.00586 0.867,0.867 0 0 0 -0.08594,0.013672 0.867,0.867 0 0 0 -0.08398,0.021484 0.867,0.867 0 0 0 -0.08008,0.03125 0.867,0.867 0 0 0 -0.07813,0.039063 0.867,0.867 0 0 0 -0.07422,0.044922 0.867,0.867 0 0 0 -0.06836,0.052734 0.867,0.867 0 0 0 -0.0625,0.060547 0.867,0.867 0 0 0 -0.0098,0.00977 0.867,0.867 0 0 0 -0.05859,0.064453 0.867,0.867 0 0 0 -0.05273,0.068359 0.867,0.867 0 0 0 -0.04492,0.074219 0.867,0.867 0 0 0 -0.03711,0.078125 0.867,0.867 0 0 0 -0.0293,0.082031 0.867,0.867 0 0 0 -0.02149,0.083984 0.867,0.867 0 0 0 -0.01172,0.085937 0.867,0.867 0 0 0 -0.0039,0.087891 v 0.171875 A 2.471,2.471 0 0 1 10.091797,3.078125 2.471,2.471 0 0 1 10.056641,3.3242188 2.471,2.471 0 0 1 9.9980469,3.5644531 2.471,2.471 0 0 1 9.9160156,3.796875 2.471,2.471 0 0 1 9.8105469,4.0195312 2.471,2.471 0 0 1 9.6835938,4.2324219 2.463,2.463 0 0 1 9.5800781,4.3789062 2.463,2.463 0 0 1 9.4199219,4.5664062 2.463,2.463 0 0 1 9.2421875,4.7382812 2.463,2.463 0 0 1 9.0488281,4.8886719 2.463,2.463 0 0 1 8.8417969,5.0214844 2.463,2.463 0 0 1 8.6210938,5.1328125 a 0.835,0.835 0 0 1 -0.029297,0.011719 0.835,0.835 0 0 1 -0.078125,0.03125 0.406,0.406 0 0 1 -0.00781,0.00195 0.406,0.406 0 0 1 -0.041016,0.00977 0.406,0.406 0 0 1 -0.039063,0.00586 0.406,0.406 0 0 1 -0.041016,0.00195 3.6,3.6 0 0 1 -0.050781,0.017578 A 3.6,3.6 0 0 1 7.984375,5.3027344 2.028,2.028 0 0 1 7.96875,5.3066406 2.028,2.028 0 0 1 7.7675781,5.3359375 2.028,2.028 0 0 1 7.5664062,5.3457031 2.362,2.362 0 0 1 7.3378906,5.3359375 2.362,2.362 0 0 1 7.1035156,5.3007812 2.362,2.362 0 0 1 6.875,5.2421875 2.362,2.362 0 0 1 6.6523438,5.1621094 2.4,2.4 0 0 1 6.4453125,5.0644531 2.4,2.4 0 0 1 6.2382812,4.9414062 2.4,2.4 0 0 1 6.046875,4.7988281 2.4,2.4 0 0 1 5.8691406,4.6367188 l -0.064453,-0.064453 a 0.859,0.859 0 0 0 -0.00391,-0.00391 0.859,0.859 0 0 0 -0.064453,-0.058594 0.859,0.859 0 0 0 -0.070312,-0.050781 0.859,0.859 0 0 0 -0.072266,-0.042969 0.859,0.859 0 0 0 -0.078125,-0.035156 0.946,0.946 0 0 0 -0.074219,-0.025391 0.946,0.946 0 0 0 -0.091797,-0.023438 0.946,0.946 0 0 0 -0.09375,-0.011719 0.946,0.946 0 0 0 -0.095703,-0.00391 0.946,0.946 0 0 0 -0.078125,0.00195 0.946,0.946 0 0 0 -0.09375,0.011719 0.946,0.946 0 0 0 -0.091797,0.019531 0.946,0.946 0 0 0 -0.089844,0.03125 0.859,0.859 0 0 0 -0.00586,0.00195 0.859,0.859 0 0 0 -0.078125,0.037109 0.859,0.859 0 0 0 -0.074219,0.042969 0.859,0.859 0 0 0 -0.068359,0.052734 0.859,0.859 0 0 0 -0.0625,0.056641 A 0.972,0.972 0 0 0 4.46875,4.625 0.972,0.972 0 0 0 4.410156,4.703125 0.972,0.972 0 0 0 4.359375,4.785156 0.972,0.972 0 0 0 4.316406,4.873047 0.9,0.9 0 0 0 4.310546,4.886719 0.9,0.9 0 0 0 4.281249,4.972656 0.9,0.9 0 0 0 4.259765,5.058594 0.9,0.9 0 0 0 4.246093,5.148438 a 0.9,0.9 0 0 0 -0.00391,0.089844 0.852,0.852 0 0 0 0,0.013672 0.852,0.852 0 0 0 0.00586,0.083984 0.852,0.852 0 0 0 0.015625,0.083984 0.852,0.852 0 0 0 0.021484,0.082031 0.852,0.852 0 0 0 0.03125,0.080078 0.972,0.972 0 0 0 0.03125,0.064453 0.972,0.972 0 0 0 0.048828,0.083984 0.972,0.972 0 0 0 0.056641,0.078125 0.972,0.972 0 0 0 0.064453,0.074219 l 0.0625,0.042969 v 0.025391 a 2.623,2.623 0 0 1 0.091797,0.1035156 2.623,2.623 0 0 1 0.1582031,0.2089844 2.623,2.623 0 0 1 0.1367188,0.2246093 2.623,2.623 0 0 1 0.1132812,0.2363282 2.337,2.337 0 0 1 0.00586,0.011719 2.337,2.337 0 0 1 0.078125,0.2207031 2.337,2.337 0 0 1 0.056641,0.2265626 2.337,2.337 0 0 1 0.033203,0.2304687 2.337,2.337 0 0 1 0.00977,0.234375 2.272,2.272 0 0 1 0,0.03125 2.272,2.272 0 0 1 -0.015625,0.2265625 2.272,2.272 0 0 1 -0.037109,0.2246094 2.9,2.9 0 0 1 -0.046875,0.1875 2.9,2.9 0 0 1 -0.09375,0.2753906 2.366,2.366 0 0 1 -0.00391,0.00977 2.366,2.366 0 0 1 -0.09375,0.2167969 A 2.366,2.366 0 0 1 4.8574219,9.0273438 2.366,2.366 0 0 1 4.7226562,9.2207031 2.366,2.366 0 0 1 4.5683594,9.4003906 2.366,2.366 0 0 1 4.3964844,9.5644531 2.366,2.366 0 0 1 4.2109375,9.7109375 2.4,2.4 0 0 1 4.203125,9.7148438 2.4,2.4 0 0 1 4.0019531,9.84375 2.4,2.4 0 0 1 3.7871094,9.953125 a 2.4,2.4 0 0 1 -0.2226563,0.085937 2.4,2.4 0 0 1 -0.2324219,0.06445 2.4,2.4 0 0 1 -0.2363281,0.04101 2.4,2.4 0 0 1 -0.2382812,0.01563 H 2.75 a 0.892,0.892 0 0 0 -0.013672,0 0.892,0.892 0 0 0 -0.089844,0.0059 0.892,0.892 0 0 0 -0.087891,0.01172 0.892,0.892 0 0 0 -0.085938,0.02149 0.892,0.892 0 0 0 -0.083984,0.03125 0.892,0.892 0 0 0 -0.082031,0.03906 0.892,0.892 0 0 0 -0.074219,0.04687 0.892,0.892 0 0 0 -0.072266,0.05274 0.892,0.892 0 0 0 -0.064453,0.06055 0.892,0.892 0 0 0 -0.011719,0.0098 0.892,0.892 0 0 0 -0.058594,0.06641 0.892,0.892 0 0 0 -0.052734,0.07227 0.892,0.892 0 0 0 -0.044922,0.07813 0.892,0.892 0 0 0 -0.037109,0.08008 0.892,0.892 0 0 0 -0.029297,0.08398 0.892,0.892 0 0 0 -0.021484,0.08789 0.892,0.892 0 0 0 -0.011719,0.08789 0.892,0.892 0 0 0 -0.00195,0.08984 0.867,0.867 0 0 0 0,0.01367 0.867,0.867 0 0 0 0.00586,0.08594 0.867,0.867 0 0 0 0.013672,0.08594 0.867,0.867 0 0 0 0.021484,0.08399 0.867,0.867 0 0 0 0.03125,0.08203 0.867,0.867 0 0 0 0.037109,0.07617 0.867,0.867 0 0 0 0.046875,0.07422 0.867,0.867 0 0 0 0.052734,0.06836 0.867,0.867 0 0 0 0.060547,0.0625 0.892,0.892 0 0 0 0.00977,0.0098 0.892,0.892 0 0 0 0.066406,0.06055 0.892,0.892 0 0 0 0.072266,0.05274 0.892,0.892 0 0 0 0.076172,0.04492 0.892,0.892 0 0 0 0.082031,0.03711 0.892,0.892 0 0 0 0.083984,0.0293 0.892,0.892 0 0 0 0.085937,0.01953 0.892,0.892 0 0 0 0.087891,0.01172 0.892,0.892 0 0 0 0.089844,0.0039 h 0.1503906 a 2.376,2.376 0 0 1 0.1933594,0.0059 2.376,2.376 0 0 1 0.234375,0.03125 2.376,2.376 0 0 1 0.2324219,0.05273 2.376,2.376 0 0 1 0.2246093,0.07617 2.376,2.376 0 0 1 0.2167969,0.09766 2.376,2.376 0 0 1 0.2050781,0.119141 2.4,2.4 0 0 1 0.1679688,0.11914 2.4,2.4 0 0 1 0.1816406,0.15625 2.4,2.4 0 0 1 0.1660156,0.171875 2.4,2.4 0 0 1 0.1484376,0.189453 A 2.4,2.4 0 0 1 5,13.210938 2.4,2.4 0 0 1 5.1074219,13.425781 v 0.0293 a 2.4,2.4 0 0 1 0.011719,0.0293 2.4,2.4 0 0 1 0.085937,0.222656 2.4,2.4 0 0 1 0.0625,0.232422 2.37,2.37 0 0 1 0.00586,0.0293 2.37,2.37 0 0 1 0.037109,0.234375 2.37,2.37 0 0 1 0.011719,0.236328 2.362,2.362 0 0 1 -0.011719,0.228516 2.362,2.362 0 0 1 -0.033203,0.232422 2.362,2.362 0 0 1 -0.058594,0.230468 2.362,2.362 0 0 1 -0.080078,0.220703 2.583,2.583 0 0 1 -0.064453,0.146485 2.583,2.583 0 0 1 -0.1230469,0.226562 2.583,2.583 0 0 1 -0.1464844,0.212891 2.583,2.583 0 0 1 -0.1660156,0.199219 l -0.064453,0.0625 A 0.972,0.972 0 0 0 4.527344,16.251958 0.972,0.972 0 0 0 4.46875,16.330088 0.972,0.972 0 0 0 4.417969,16.412118 0.972,0.972 0 0 0 4.375,16.5 0.852,0.852 0 0 0 4.36914,16.51172 0.852,0.852 0 0 0 4.339843,16.5918 a 0.852,0.852 0 0 0 -0.021484,0.08398 0.852,0.852 0 0 0 -0.013672,0.08398 0.852,0.852 0 0 0 -0.00391,0.08398 0.828,0.828 0 0 0 0,0.0293 0.828,0.828 0 0 0 0.00781,0.08203 0.828,0.828 0 0 0 0.015625,0.08203 0.828,0.828 0 0 0 0.023437,0.08008 0.828,0.828 0 0 0 0.03125,0.07617 1.014,1.014 0 0 0 0.021484,0.04492 1.014,1.014 0 0 0 0.050781,0.08789 1.014,1.014 0 0 0 0.058594,0.08203 1.014,1.014 0 0 0 0.068359,0.07422 1.014,1.014 0 0 0 0.037109,0.03516 1.014,1.014 0 0 0 0.078125,0.0625 1.014,1.014 0 0 0 0.083984,0.05664 1.014,1.014 0 0 0 0.089844,0.04687 0.828,0.828 0 0 0 0.03125,0.01367 0.828,0.828 0 0 0 0.078125,0.02734 0.828,0.828 0 0 0 0.080078,0.01953 0.828,0.828 0 0 0 0.082031,0.0098 0.828,0.828 0 0 0 0.083984,0.0039 0.828,0.828 0 0 0 0.033203,0 0.828,0.828 0 0 0 0.082031,-0.0059 0.828,0.828 0 0 0 0.082031,-0.01563 0.828,0.828 0 0 0 0.080078,-0.02344 0.828,0.828 0 0 0 0.076172,-0.0293 1.014,1.014 0 0 0 0.044922,-0.02148 1.014,1.014 0 0 0 0.087891,-0.05273 1.014,1.014 0 0 0 0.082031,-0.05859 1.014,1.014 0 0 0 0.074219,-0.06836 l 0.064453,-0.04297 a 2.4,2.4 0 0 1 0.1699219,-0.154297 2.4,2.4 0 0 1 0.1914062,-0.144531 2.4,2.4 0 0 1 0.2070313,-0.123047 2.4,2.4 0 0 1 0.2167969,-0.103516 2.362,2.362 0 0 1 0.2148437,-0.07812 2.362,2.362 0 0 1 0.2285156,-0.05859 2.362,2.362 0 0 1 0.2324219,-0.03516 2.362,2.362 0 0 1 0.2363281,-0.01172 2.224,2.224 0 0 1 0.052734,0.002 2.224,2.224 0 0 1 0.2226563,0.01563 2.224,2.224 0 0 1 0.21875,0.03711 3.007,3.007 0 0 1 0.1660156,0.04297 3.007,3.007 0 0 1 0.2851562,0.09766 2.487,2.487 0 0 1 0.2011719,0.08789 2.487,2.487 0 0 1 0.2167969,0.11914 2.487,2.487 0 0 1 0.2050781,0.140626 2.487,2.487 0 0 1 0.1894531,0.162109 2.487,2.487 0 0 1 0.171875,0.179687 2.487,2.487 0 0 1 0.1542969,0.195313 2.4,2.4 0 0 1 0.00586,0.0059 2.4,2.4 0 0 1 0.1289062,0.203125 2.4,2.4 0 0 1 0.109375,0.212891 2.4,2.4 0 0 1 0.085938,0.224609 2.4,2.4 0 0 1 0.06445,0.230469 2.4,2.4 0 0 1 0.03906,0.236328 2.4,2.4 0 0 1 0.01758,0.240234 V 19.25 a 0.892,0.892 0 0 0 0,0.01367 0.892,0.892 0 0 0 0.0039,0.08984 0.892,0.892 0 0 0 0.01367,0.08789 0.892,0.892 0 0 0 0.02148,0.08594 0.892,0.892 0 0 0 0.03125,0.08398 0.892,0.892 0 0 0 0.03711,0.08203 0.892,0.892 0 0 0 0.04687,0.07422 0.892,0.892 0 0 0 0.05469,0.07227 0.892,0.892 0 0 0 0.06055,0.06445 0.867,0.867 0 0 0 0.0098,0.01172 0.867,0.867 0 0 0 0.06445,0.05859 0.867,0.867 0 0 0 0.06836,0.05078 0.867,0.867 0 0 0 0.07422,0.04492 0.867,0.867 0 0 0 0.07812,0.03711 0.867,0.867 0 0 0 0.08203,0.0293 0.867,0.867 0 0 0 0.08398,0.02148 0.867,0.867 0 0 0 0.08594,0.01172 0.867,0.867 0 0 0 0.08594,0.0039 0.892,0.892 0 0 0 0.01563,0 0.892,0.892 0 0 0 0.08789,-0.0039 0.892,0.892 0 0 0 0.08789,-0.01367 0.892,0.892 0 0 0 0.08789,-0.02148 0.892,0.892 0 0 0 0.08398,-0.03125 0.892,0.892 0 0 0 0.08008,-0.03711 0.892,0.892 0 0 0 0.07617,-0.04687 0.892,0.892 0 0 0 0.07031,-0.05469 0.892,0.892 0 0 0 0.06641,-0.06055 0.892,0.892 0 0 0 0.0098,-0.0098 0.892,0.892 0 0 0 0.05859,-0.06641 0.892,0.892 0 0 0 0.05274,-0.07227 0.892,0.892 0 0 0 0.04492,-0.07617 0.892,0.892 0 0 0 0.03711,-0.08008 0.892,0.892 0 0 0 0.0293,-0.08594 0.892,0.892 0 0 0 0.02148,-0.08594 0.892,0.892 0 0 0 0.0098,-0.08789 0.892,0.892 0 0 0 0.0039,-0.08984 v -0.150391 a 2.376,2.376 0 0 1 0.0078,-0.193359 2.376,2.376 0 0 1 0.0293,-0.236328 2.376,2.376 0 0 1 0.05469,-0.230469 2.376,2.376 0 0 1 0.07617,-0.224609 2.376,2.376 0 0 1 0.09961,-0.216797 2.376,2.376 0 0 1 0.119141,-0.205078 2.42,2.42 0 0 1 0.101562,-0.146485 2.42,2.42 0 0 1 0.152344,-0.185546 2.42,2.42 0 0 1 0.171875,-0.171876 2.42,2.42 0 0 1 0.189453,-0.152343 2.42,2.42 0 0 1 0.201172,-0.13086 2.42,2.42 0 0 1 0.214844,-0.113281 h 0.02148 a 2.347,2.347 0 0 1 0.04687,-0.01953 2.347,2.347 0 0 1 0.220703,-0.08203 2.347,2.347 0 0 1 0.226563,-0.05859 2.522,2.522 0 0 1 0.01563,-0.0039 2.522,2.522 0 0 1 0.248047,-0.03711 2.522,2.522 0 0 1 0.251953,-0.01367 2.362,2.362 0 0 1 0.228516,0.01172 2.362,2.362 0 0 1 0.234375,0.0332 2.362,2.362 0 0 1 0.228515,0.05859 2.362,2.362 0 0 1 0.222656,0.08008 2.583,2.583 0 0 1 0.146485,0.06445 2.583,2.583 0 0 1 0.226562,0.123047 2.583,2.583 0 0 1 0.212891,0.146484 2.583,2.583 0 0 1 0.197266,0.166016 v 0.02148 l 0.06445,0.04297 a 1.014,1.014 0 0 0 0.03711,0.0332 1.014,1.014 0 0 0 0.07813,0.06445 1.014,1.014 0 0 0 0.08398,0.05469 1.014,1.014 0 0 0 0.08984,0.04687 0.828,0.828 0 0 0 0.02539,0.0098 0.828,0.828 0 0 0 0.07813,0.02734 0.828,0.828 0 0 0 0.08203,0.01758 0.828,0.828 0 0 0 0.08203,0.01172 0.828,0.828 0 0 0 0.08203,0.002 0.828,0.828 0 0 0 0.0332,0 0.828,0.828 0 0 0 0.08398,-0.0078 0.828,0.828 0 0 0 0.08008,-0.01367 0.828,0.828 0 0 0 0.08008,-0.02344 0.828,0.828 0 0 0 0.07617,-0.03125 1.014,1.014 0 0 0 0.04492,-0.02148 1.014,1.014 0 0 0 0.08789,-0.05078 1.014,1.014 0 0 0 0.08203,-0.05859 1.014,1.014 0 0 0 0.07617,-0.06836 1.015,1.015 0 0 0 0.0332,-0.03516 1.015,1.015 0 0 0 0.06445,-0.08008 1.015,1.015 0 0 0 0.05469,-0.08398 1.015,1.015 0 0 0 0.04687,-0.08984 0.828,0.828 0 0 0 0.01367,-0.03125 0.828,0.828 0 0 0 0.02734,-0.07813 0.828,0.828 0 0 0 0.01953,-0.08008 0.828,0.828 0 0 0 0.01172,-0.08203 0.828,0.828 0 0 0 0.0039,-0.08398 0.852,0.852 0 0 0 -0.002,-0.01367 0.852,0.852 0 0 0 -0.0059,-0.08398 0.852,0.852 0 0 0 -0.01367,-0.08398 0.852,0.852 0 0 0 -0.02344,-0.08203 0.852,0.852 0 0 0 -0.03125,-0.08008 0.972,0.972 0 0 0 -0.0293,-0.06445 0.972,0.972 0 0 0 -0.04883,-0.08398 0.972,0.972 0 0 0 -0.05664,-0.07813 0.972,0.972 0 0 0 -0.06445,-0.07227 l -0.06445,-0.06445 a 2.583,2.583 0 0 1 -0.1054,-0.121153 2.583,2.583 0 0 1 -0.152344,-0.207031 2.583,2.583 0 0 1 -0.132812,-0.222656 2.583,2.583 0 0 1 -0.109375,-0.234375 2.362,2.362 0 0 1 -0.07813,-0.214844 2.362,2.362 0 0 1 -0.05859,-0.228515 2.362,2.362 0 0 1 -0.03516,-0.232422 2.362,2.362 0 0 1 -0.01172,-0.236328 2.37,2.37 0 0 1 0,-0.0293 2.37,2.37 0 0 1 0.01563,-0.236328 2.37,2.37 0 0 1 0.03906,-0.234375 2.9,2.9 0 0 1 0.04688,-0.1875 2.9,2.9 0 0 1 0.09375,-0.275391 l 0.0098,-0.0098 0.01172,-0.01172 a 2.325,2.325 0 0 1 0.002,-0.0039 2.325,2.325 0 0 1 0.09961,-0.208984 2.325,2.325 0 0 1 0.121094,-0.199219 2.325,2.325 0 0 1 0.138672,-0.185547 2.325,2.325 0 0 1 0.158203,-0.171875 2.325,2.325 0 0 1 0.173828,-0.154296 2.325,2.325 0 0 1 0.1875,-0.136719 2.365,2.365 0 0 1 0.195313,-0.117188 2.365,2.365 0 0 1 0.214844,-0.101562 2.365,2.365 0 0 1 0.222656,-0.08008 2.365,2.365 0 0 1 0.228515,-0.05664 2.365,2.365 0 0 1 0.234375,-0.0332 2.365,2.365 0 0 1 0.236328,-0.0098 H 19.25 a 0.892,0.892 0 0 0 0.0059,0 0.892,0.892 0 0 0 0.08789,-0.0039 0.892,0.892 0 0 0 0.08789,-0.01172 0.892,0.892 0 0 0 0.08789,-0.02148 0.892,0.892 0 0 0 0.08398,-0.0293 0.892,0.892 0 0 0 0.08008,-0.03906 0.892,0.892 0 0 0 0.07617,-0.04492 0.892,0.892 0 0 0 0.07227,-0.05274 0.892,0.892 0 0 0 0.06641,-0.06055 0.867,0.867 0 0 0 0.0098,-0.0098 0.867,0.867 0 0 0 0.05859,-0.06445 0.867,0.867 0 0 0 0.05273,-0.06836 0.867,0.867 0 0 0 0.04492,-0.07422 0.867,0.867 0 0 0 0.03711,-0.08008 0.867,0.867 0 0 0 0.0293,-0.08008 0.867,0.867 0 0 0 0.01953,-0.08398 0.867,0.867 0 0 0 0.01367,-0.08594 0.867,0.867 0 0 0 0.0039,-0.08789 0.892,0.892 0 0 0 0,-0.01367 0.892,0.892 0 0 0 -0.0059,-0.08984 0.892,0.892 0 0 0 -0.01172,-0.08789 0.892,0.892 0 0 0 -0.02344,-0.08594 0.892,0.892 0 0 0 -0.0293,-0.08398 0.892,0.892 0 0 0 -0.03906,-0.08008 0.892,0.892 0 0 0 -0.04687,-0.07617 0.892,0.892 0 0 0 -0.05273,-0.07227 0.892,0.892 0 0 0 -0.06055,-0.06445 0.892,0.892 0 0 0 -0.0098,-0.0098 0.892,0.892 0 0 0 -0.06641,-0.06055 A 0.892,0.892 0 0 0 19.75,10.25 0.892,0.892 0 0 0 19.67187,10.20508 0.892,0.892 0 0 0 19.59179,10.16797 0.892,0.892 0 0 0 19.50781,10.13867 0.892,0.892 0 0 0 19.41992,10.11914 0.892,0.892 0 0 0 19.33203,10.10742 0.892,0.892 0 0 0 19.24219,10.10352 H 19.09375 A 2.365,2.365 0 0 1 18.863281,10.09372 2.365,2.365 0 0 1 18.630859,10.06052 2.365,2.365 0 0 1 18.400391,10.00583 2.365,2.365 0 0 1 18.177734,9.9257812 2.365,2.365 0 0 1 17.962891,9.8261719 2.365,2.365 0 0 1 17.761719,9.703125 2.463,2.463 0 0 1 17.613281,9.5996094 2.463,2.463 0 0 1 17.425781,9.4394531 2.463,2.463 0 0 1 17.255859,9.2617188 2.463,2.463 0 0 1 17.103516,9.0683594 2.463,2.463 0 0 1 16.970703,8.8613281 2.463,2.463 0 0 1 16.861328,8.640625 a 0.848,0.848 0 0 1 -0.01367,-0.044922 0.848,0.848 0 0 1 -0.01953,-0.083984 0.849,0.849 0 0 0 -0.0078,-0.046875 0.849,0.849 0 0 0 -0.02344,-0.082031 2.476,2.476 0 0 1 -0.04883,-0.1582031 2.476,2.476 0 0 1 -0.05078,-0.2421875 2.547,2.547 0 0 1 -0.01953,-0.1445313 2.547,2.547 0 0 1 -0.01367,-0.2558594 2.548,2.548 0 0 1 0.0078,-0.1914062 2.548,2.548 0 0 1 0.0293,-0.2519531 2.548,2.548 0 0 1 0.05664,-0.2480469 2.548,2.548 0 0 1 0.08008,-0.2421875 2.263,2.263 0 0 1 0.01367,-0.037109 2.263,2.263 0 0 1 0.09765,-0.205079 2.263,2.263 0 0 1 0.115234,-0.1933594 2.263,2.263 0 0 1 0.136719,-0.1816406 2.263,2.263 0 0 1 0.152344,-0.1679688 l 0.06445,-0.0625 a 0.858,0.858 0 0 0 0.0039,-0.00586 0.858,0.858 0 0 0 0.05859,-0.064453 0.858,0.858 0 0 0 0.05078,-0.068359 0.858,0.858 0 0 0 0.04297,-0.074219 0.858,0.858 0 0 0 0.03516,-0.078125 0.946,0.946 0 0 0 0.02539,-0.074219 0.946,0.946 0 0 0 0.02344,-0.091797 0.946,0.946 0 0 0 0.01172,-0.09375 0.946,0.946 0 0 0 0.0039,-0.09375 0.973,0.973 0 0 0 -0.002,-0.060547 A 0.973,0.973 0 0 0 17.660156,5 0.973,0.973 0 0 0 17.640625,4.9042969 0.973,0.973 0 0 0 17.609375,4.8125 a 0.835,0.835 0 0 0 -0.0078,-0.023437 0.835,0.835 0 0 0 -0.03711,-0.076172 0.835,0.835 0 0 0 -0.04102,-0.072266 0.835,0.835 0 0 0 -0.05078,-0.066406 0.835,0.835 0 0 0 -0.05469,-0.0625 0.835,0.835 0 0 0 -0.01953,-0.017578 0.835,0.835 0 0 0 -0.0625,-0.054687 0.835,0.835 0 0 0 -0.06836,-0.046875 0.835,0.835 0 0 0 -0.07422,-0.041016 0.835,0.835 0 0 0 -0.07617,-0.033203 0.973,0.973 0 0 0 -0.05664,-0.019531 0.973,0.973 0 0 0 -0.09375,-0.023437 0.973,0.973 0 0 0 -0.0957,-0.015625 0.973,0.973 0 0 0 -0.09766,-0.00391 0.946,0.946 0 0 0 -0.07813,0.00195 0.946,0.946 0 0 0 -0.09375,0.011719 0.946,0.946 0 0 0 -0.09375,0.019531 0.946,0.946 0 0 0 -0.08789,0.029297 0.859,0.859 0 0 0 -0.0078,0.00391 0.859,0.859 0 0 0 -0.07813,0.035156 0.859,0.859 0 0 0 -0.07227,0.044922 0.859,0.859 0 0 0 -0.07031,0.050781 0.859,0.859 0 0 0 -0.0625,0.058594 L 16.064465,4.57617 A 2.263,2.263 0 0 1 16.037109,4.6035156 2.263,2.263 0 0 1 15.867188,4.7539062 2.263,2.263 0 0 1 15.683594,4.8867188 2.263,2.263 0 0 1 15.486328,5 2.263,2.263 0 0 1 15.28125,5.091797 a 2.49,2.49 0 0 1 -0.177734,0.0625 2.49,2.49 0 0 1 -0.240235,0.060547 2.49,2.49 0 0 1 -0.246093,0.037109 2.49,2.49 0 0 1 -0.25,0.011719 A 2.941,2.941 0 0 1 14.160156,5.255862 2.941,2.941 0 0 1 13.867188,5.2207031 1.664,1.664 0 0 1 13.716797,5.1875 1.664,1.664 0 0 1 13.558594,5.1367188 1.664,1.664 0 0 1 13.40625,5.0703125 H 13.39062 A 2.463,2.463 0 0 1 13.228516,4.9921875 2.463,2.463 0 0 1 13.015625,4.8652344 2.463,2.463 0 0 1 12.818359,4.71875 2.463,2.463 0 0 1 12.636719,4.5527344 2.463,2.463 0 0 1 12.472656,4.3691406 2.463,2.463 0 0 1 12.326172,4.171875 2.365,2.365 0 0 1 12.208984,3.9746094 2.365,2.365 0 0 1 12.107422,3.7617188 a 2.365,2.365 0 0 1 -0.08008,-0.2226563 2.365,2.365 0 0 1 -0.05664,-0.2304687 2.365,2.365 0 0 1 -0.0332,-0.234375 2.365,2.365 0 0 1 -0.0098,-0.234375 v -0.085938 a 0.867,0.867 0 0 0 0,-0.015625 0.867,0.867 0 0 0 -0.0059,-0.085937 0.867,0.867 0 0 0 -0.01367,-0.085938 0.867,0.867 0 0 0 -0.02148,-0.083984 0.867,0.867 0 0 0 -0.03125,-0.080078 0.867,0.867 0 0 0 -0.03906,-0.078125 0.867,0.867 0 0 0 -0.04492,-0.074219 0.867,0.867 0 0 0 -0.05469,-0.068359 0.867,0.867 0 0 0 -0.05859,-0.0625 0.892,0.892 0 0 0 -0.0098,-0.00977 0.892,0.892 0 0 0 -0.06641,-0.060547 0.892,0.892 0 0 0 -0.07226,-0.052734 0.892,0.892 0 0 0 -0.07813,-0.044922 0.892,0.892 0 0 0 -0.08008,-0.037109 0.892,0.892 0 0 0 -0.08398,-0.029297 0.892,0.892 0 0 0 -0.08789,-0.019531 0.892,0.892 0 0 0 -0.08789,-0.011719 0.892,0.892 0 0 0 -0.08789,-0.00391 0.867,0.867 0 0 0 -0.01563,0 z"
     fill="#fff"
     stroke-width="0" />
  <path
     id="Contur"
     d="m 18.648788,14.093528 a 0.747,0.747 0 0 1 0.226,-0.247 0.535,0.535 0 0 1 0.312,-0.1 h 0.085 a 2.65,2.65 0 0 0 1.944,-0.802 2.649,2.649 0 0 0 0.806,-1.945 2.649,2.649 0 0 0 -0.806,-1.944 2.65,2.65 0 0 0 -1.944,-0.806 h -0.15 a 0.616,0.616 0 0 1 -0.279,-0.064 0.554,0.554 0 0 1 -0.215,-0.193 0.42,0.42 0 0 1 -0.032,-0.086 0.42,0.42 0 0 0 -0.032,-0.086 0.993,0.993 0 0 1 -0.032,-0.118 0.6,0.6 0 0 1 -0.01,-0.119 0.631,0.631 0 0 1 0.043,-0.236 0.572,0.572 0 0 1 0.129,-0.193 l 0.043,-0.043 a 2.8,2.8 0 0 0 0.6,-0.892 2.688,2.688 0 0 0 0.215,-1.063 2.636,2.636 0 0 0 -0.215,-1.042 2.8,2.8 0 0 0 -0.6,-0.892 2.8,2.8 0 0 0 -0.892,-0.6 2.688,2.688 0 0 0 -1.063,-0.215 2.636,2.636 0 0 0 -1.042,0.215 2.8,2.8 0 0 0 -0.892,0.6 l -0.064,0.043 a 0.572,0.572 0 0 1 -0.193,0.129 0.575,0.575 0 0 1 -0.215,0.043 0.783,0.783 0 0 1 -0.129,-0.011 0.381,0.381 0 0 1 -0.107,-0.032 l -0.018,-0.011 a 0.044,0.044 0 0 0 -0.032,-0.011 0.548,0.548 0 0 1 -0.247,-0.215 0.553,0.553 0 0 1 -0.1,-0.3 v -0.107 a 2.65,2.65 0 0 0 -0.806,-1.944 2.65,2.65 0 0 0 -1.944,-0.806 2.65,2.65 0 0 0 -1.9440002,0.806 2.65,2.65 0 0 0 -0.806,1.944 v 0.174 a 0.552,0.552 0 0 1 -0.064,0.269 0.581,0.581 0 0 1 -0.193,0.2 0.419,0.419 0 0 1 -0.086,0.032 0.42,0.42 0 0 0 -0.086,0.032 0.382,0.382 0 0 1 -0.107,0.032 0.783,0.783 0 0 1 -0.129,0.011 0.631,0.631 0 0 1 -0.236,-0.043 0.5,0.5 0 0 1 -0.172,-0.107 l -0.064,-0.064 a 2.657,2.657 0 0 0 -0.892,-0.591 2.811,2.811 0 0 0 -1.063,-0.2 2.756,2.756 0 0 0 -1.042,0.2 2.657,2.657 0 0 0 -0.892,0.591 2.657,2.657 0 0 0 -0.591,0.892 2.811,2.811 0 0 0 -0.2,1.063 2.73,2.73 0 0 0 0.2,1.053 2.542,2.542 0 0 0 0.612,0.881 l 0.043,0.064 a 0.572,0.572 0 0 1 0.129,0.193 0.575,0.575 0 0 1 0.043,0.215 0.783,0.783 0 0 1 -0.011,0.129 0.382,0.382 0 0 1 -0.032,0.107 0.168,0.168 0 0 0 -0.026,0.041 0.1,0.1 0 0 0 -0.011,0.043 0.642,0.642 0 0 1 -0.2,0.258 0.53,0.53 0 0 1 -0.333,0.107 h -0.068 a 2.65,2.65 0 0 0 -1.944,0.806 2.65,2.65 0 0 0 -0.806,1.944 2.649,2.649 0 0 0 0.806,1.944 2.649,2.649 0 0 0 1.944,0.806 h 0.15 a 0.57,0.57 0 0 1 0.333,0.1 0.7,0.7 0 0 1 0.226,0.269 v 0.023 a 0.382,0.382 0 0 1 0.032,0.107 0.675,0.675 0 0 1 0.009,0.106 0.631,0.631 0 0 1 -0.043,0.236 0.572,0.572 0 0 1 -0.129,0.193 l -0.043,0.043 a 2.8,2.8 0 0 0 -0.6,0.892 2.688,2.688 0 0 0 -0.215,1.063 2.636,2.636 0 0 0 0.215,1.042 2.8,2.8 0 0 0 0.6,0.892 2.8,2.8 0 0 0 0.892,0.6 2.688,2.688 0 0 0 1.063,0.215 2.612,2.612 0 0 0 1.053,-0.215 2.834,2.834 0 0 0 0.881,-0.6 l 0.064,-0.043 a 0.391,0.391 0 0 1 0.174,-0.131 0.631,0.631 0 0 1 0.236,-0.043 0.6,0.6 0 0 1 0.118,0.011 0.993,0.993 0 0 1 0.118,0.032 l 0.021,0.011 a 0.1,0.1 0 0 0 0.043,0.011 0.591,0.591 0 0 1 0.279,0.215 0.544,0.544 0 0 1 0.107,0.322 v 0.064 a 2.649,2.649 0 0 0 0.808,1.947 2.65,2.65 0 0 0 1.9440002,0.806 2.65,2.65 0 0 0 1.944,-0.806 2.65,2.65 0 0 0 0.806,-1.944 v -0.15 a 0.585,0.585 0 0 1 0.1,-0.322 0.533,0.533 0 0 1 0.264,-0.216 v -0.011 q 0,-0.011 0.021,-0.011 a 0.383,0.383 0 0 1 0.1,-0.032 0.6,0.6 0 0 1 0.118,-0.011 0.575,0.575 0 0 1 0.215,0.043 0.572,0.572 0 0 1 0.193,0.129 l 0.064,0.043 a 2.834,2.834 0 0 0 0.881,0.6 2.612,2.612 0 0 0 1.052,0.212 2.688,2.688 0 0 0 1.063,-0.21 2.8,2.8 0 0 0 0.892,-0.6 2.657,2.657 0 0 0 0.591,-0.89 2.756,2.756 0 0 0 0.2,-1.042 2.811,2.811 0 0 0 -0.2,-1.063 2.657,2.657 0 0 0 -0.59,-0.895 l -0.064,-0.043 a 0.457,0.457 0 0 1 -0.118,-0.193 0.744,0.744 0 0 1 -0.032,-0.215 0.783,0.783 0 0 1 0.011,-0.129 0.382,0.382 0 0 1 0.032,-0.107 q 0,-0.021 0,-0.021 c 0,0 -0.002,-0.009 -0.002,-0.023 z m -1.676,-0.709 -0.011,0.011 -0.011,0.011 a 2.9,2.9 0 0 0 -0.14,0.462 2.37,2.37 0 0 0 -0.054,0.5 2.362,2.362 0 0 0 0.183,0.913 2.583,2.583 0 0 0 0.5,0.784 v 0 l 0.064,0.064 a 0.972,0.972 0 0 1 0.2,0.3 0.852,0.852 0 0 1 0.075,0.344 0.828,0.828 0 0 1 -0.075,0.354 1.015,1.015 0 0 1 -0.2,0.29 1.014,1.014 0 0 1 -0.29,0.2 0.828,0.828 0 0 1 -0.354,0.075 0.828,0.828 0 0 1 -0.349,-0.068 1.014,1.014 0 0 1 -0.29,-0.2 l -0.064,-0.043 v -0.021 a 2.583,2.583 0 0 0 -0.784,-0.5 2.362,2.362 0 0 0 -0.913,-0.183 2.522,2.522 0 0 0 -0.516,0.054 2.347,2.347 0 0 0 -0.494,0.161 h -0.022 a 2.42,2.42 0 0 0 -1.031,0.9 2.376,2.376 0 0 0 -0.387,1.307 v 0.15 a 0.892,0.892 0 0 1 -0.268,0.655 0.892,0.892 0 0 1 -0.655,0.269 0.867,0.867 0 0 1 -0.634,-0.269 0.892,0.892 0 0 1 -0.269,-0.655 v -0.086 0 a 2.4,2.4 0 0 0 -0.4510002,-1.354 2.487,2.487 0 0 0 -1.139,-0.885 3.007,3.007 0 0 0 -0.451,-0.14 2.224,2.224 0 0 0 -0.494,-0.054 2.362,2.362 0 0 0 -0.913,0.183 2.4,2.4 0 0 0 -0.784,0.526 v 0 l -0.064,0.043 a 1.014,1.014 0 0 1 -0.29,0.2 0.828,0.828 0 0 1 -0.354,0.075 0.828,0.828 0 0 1 -0.354,-0.075 1.014,1.014 0 0 1 -0.29,-0.2 1.014,1.014 0 0 1 -0.2,-0.29 0.828,0.828 0 0 1 -0.078,-0.349 0.852,0.852 0 0 1 0.075,-0.344 0.972,0.972 0 0 1 0.2,-0.3 l 0.064,-0.064 a 2.583,2.583 0 0 0 0.5,-0.784 2.362,2.362 0 0 0 0.183,-0.913 2.37,2.37 0 0 0 -0.054,-0.5 2.4,2.4 0 0 0 -0.161,-0.483 v -0.031 0 a 2.4,2.4 0 0 0 -0.9,-1.053 2.376,2.376 0 0 0 -1.307,-0.384 h -0.15 a 0.892,0.892 0 0 1 -0.655,-0.269 0.867,0.867 0 0 1 -0.269,-0.634 0.892,0.892 0 0 1 0.269,-0.655 0.892,0.892 0 0 1 0.655,-0.269 h 0.107 a 2.4,2.4 0 0 0 1.354,-0.451 2.366,2.366 0 0 0 0.859,-1.117 2.9,2.9 0 0 0 0.14,-0.462 2.272,2.272 0 0 0 0.054,-0.483 2.337,2.337 0 0 0 -0.183,-0.924 2.623,2.623 0 0 0 -0.5,-0.773 v -0.026 l -0.064,-0.043 a 0.972,0.972 0 0 1 -0.2,-0.3 0.852,0.852 0 0 1 -0.075,-0.344 0.9,0.9 0 0 1 0.075,-0.365 0.972,0.972 0 0 1 0.2,-0.3 0.859,0.859 0 0 1 0.29,-0.193 0.946,0.946 0 0 1 0.354,-0.064 0.946,0.946 0 0 1 0.354,0.064 0.859,0.859 0 0 1 0.29,0.193 l 0.064,0.064 v 0 a 2.4,2.4 0 0 0 0.784,0.526 2.362,2.362 0 0 0 0.913,0.183 2.028,2.028 0 0 0 0.419,-0.043 3.6,3.6 0 0 0 0.4,-0.107 0.406,0.406 0 0 0 0.129,-0.021 0.835,0.835 0 0 0 0.107,-0.043 2.463,2.463 0 0 0 1.063,-0.9 2.471,2.471 0 0 0 0.4160002,-1.307 v -0.172 a 0.867,0.867 0 0 1 0.269,-0.634 0.867,0.867 0 0 1 0.634,-0.269 0.892,0.892 0 0 1 0.655,0.269 0.867,0.867 0 0 1 0.269,0.634 v 0.086 a 2.365,2.365 0 0 0 0.4,1.332 2.463,2.463 0 0 0 1.063,0.9 h 0.016 a 1.664,1.664 0 0 0 0.462,0.15 2.941,2.941 0 0 0 0.5,0.043 2.49,2.49 0 0 0 0.913,-0.172 2.263,2.263 0 0 0 0.784,-0.516 v 0 l 0.064,-0.064 a 0.859,0.859 0 0 1 0.29,-0.193 0.946,0.946 0 0 1 0.354,-0.064 0.973,0.973 0 0 1 0.344,0.064 0.835,0.835 0 0 1 0.3,0.193 0.835,0.835 0 0 1 0.193,0.3 0.973,0.973 0 0 1 0.064,0.344 0.946,0.946 0 0 1 -0.064,0.354 0.858,0.858 0 0 1 -0.193,0.29 l -0.064,0.064 v 0 a 2.263,2.263 0 0 0 -0.516,0.784 2.548,2.548 0 0 0 -0.172,0.935 2.547,2.547 0 0 0 0.032,0.4 2.476,2.476 0 0 0 0.1,0.4 0.849,0.849 0 0 1 0.032,0.129 0.848,0.848 0 0 0 0.032,0.129 2.463,2.463 0 0 0 0.9,1.063 2.365,2.365 0 0 0 1.332,0.4 h 0.15 a 0.892,0.892 0 0 1 0.655,0.269 0.892,0.892 0 0 1 0.269,0.655 0.867,0.867 0 0 1 -0.269,0.634 0.892,0.892 0 0 1 -0.648,0.263 h -0.086 a 2.365,2.365 0 0 0 -1.332,0.4 2.325,2.325 0 0 0 -0.881,1.06 z m -5.951,-6.037 a 3.541,3.541 0 0 0 -2.6000002,1.077 3.516,3.516 0 0 0 -1.074,2.578 3.541,3.541 0 0 0 1.074,2.597 3.541,3.541 0 0 0 2.6000002,1.074 3.541,3.541 0 0 0 2.6,-1.074 3.541,3.541 0 0 0 1.074,-2.6 3.516,3.516 0 0 0 -1.074,-2.575 3.541,3.541 0 0 0 -2.6,-1.077 z m 0,5.5 a 1.758,1.758 0 0 1 -1.2890002,-0.537 1.783,1.783 0 0 1 -0.537,-1.311 1.758,1.758 0 0 1 0.537,-1.289 1.758,1.758 0 0 1 1.2890002,-0.537 1.758,1.758 0 0 1 1.289,0.537 1.758,1.758 0 0 1 0.537,1.289 1.783,1.783 0 0 1 -0.537,1.311 1.758,1.758 0 0 1 -1.289,0.537 z"
     inkscape:connector-curvature="0" />
</svg>
