<svg
   xmlns="http://www.w3.org/2000/svg"
   width="21.26"
   height="20.389"
   viewBox="0 0 21.26 20.389"
   id="Star"
   >
  <path
     id="Contur"
     data-name="Объединение 1"
     d="m 15.302848,20.125261 -4.648,-2.445 -4.7,2.444 a 1.738,1.738 0 0 1 -1.844,-0.134 1.737,1.737 0 0 1 -0.7,-1.713 l 0.887,-5.175 -3.77500004,-3.7099999 a 1.74,1.74 0 0 1 -0.44299998,-1.7999999 1.74,1.74 0 0 1 1.41400002,-1.19 l 5.2,-0.755 2.363,-4.73700002 a 1.741,1.741 0 0 1 1.57,-0.976 1.741,1.741 0 0 1 1.57,0.976 l 2.324,4.70800002 5.234,0.784 a 1.74,1.74 0 0 1 1.414,1.19 1.742,1.742 0 0 1 -0.443,1.7999999 l -3.76,3.6649999 0.873,5.221 a 1.741,1.741 0 0 1 -0.7,1.713 1.763,1.763 0 0 1 -1.03,0.337 1.755,1.755 0 0 1 -0.806,-0.203 z m -9.37,-8.436 a 1.6,1.6 0 0 1 0.46,1.412 l -0.808,4.719 0.258,0.444 0.012,-0.005 -0.2,-0.388 4.236,-2.228 a 1.6,1.6 0 0 1 1.486,0 l 4.238,2.228 0.067,-0.049 -0.81,-4.718 a 1.6,1.6 0 0 1 0.459,-1.413 l 3.428,-3.3419999 -0.025,-0.08 -4.737,-0.6889999 a 1.6,1.6 0 0 1 -1.2,-0.873 l -2.119,-4.293 a 0.04,0.04 0 0 0 -0.042,-0.024 l -2.16,4.317 a 1.6,1.6 0 0 1 -1.2,0.873 l -4.738,0.6889999 -0.334,0.374 0.011,0.011 0.3,-0.3 z"
     stroke-width="0"/>
	<path
	   d="M 10.636719,2.390625 8.4765625,6.7070312 a 1.6,1.6 0 0 1 -0.078125,0.140625 1.6,1.6 0 0 1 -0.091797,0.1308594 1.6,1.6 0 0 1 -0.1054687,0.1210938 1.6,1.6 0 0 1 -0.1152344,0.109375 1.6,1.6 0 0 1 -0.125,0.099609 A 1.6,1.6 0 0 1 7.8242188,7.3925781 1.6,1.6 0 0 1 7.6816406,7.4648438 1.6,1.6 0 0 1 7.53125,7.5214844 1.6,1.6 0 0 1 7.3769531,7.5625 1.6,1.6 0 0 1 7.2753906,7.5800781 L 2.5371094,8.2695312 2.203125,8.6425781 2.2148438,8.6542969 2.515625,8.3535156 5.9335938,11.689453 a 1.6,1.6 0 0 1 0.1074218,0.117188 1.6,1.6 0 0 1 0.097656,0.126953 1.6,1.6 0 0 1 0.082031,0.136718 1.6,1.6 0 0 1 0.070312,0.144532 1.6,1.6 0 0 1 0.054687,0.15039 1.6,1.6 0 0 1 0.039063,0.154297 1.6,1.6 0 0 1 0.023437,0.158203 1.6,1.6 0 0 1 0.00781,0.160157 1.6,1.6 0 0 1 -0.00977,0.160156 1.6,1.6 0 0 1 -0.013672,0.103515 l -0.8085937,4.71875 0.2597656,0.44336 0.011719,-0.0039 L 5.6542886,17.8711 9.8906167,15.642584 a 1.6,1.6 0 0 1 0.1445313,-0.06641 1.6,1.6 0 0 1 0.152344,-0.05273 1.6,1.6 0 0 1 0.15625,-0.03711 1.6,1.6 0 0 1 0.158203,-0.02148 1.6,1.6 0 0 1 0.160156,-0.0039 1.6,1.6 0 0 1 0.158203,0.0098 1.6,1.6 0 0 1 0.158204,0.02734 1.6,1.6 0 0 1 0.154296,0.04101 1.6,1.6 0 0 1 0.148438,0.05859 1.6,1.6 0 0 1 0.0957,0.04492 l 4.238281,2.228516 0.06641,-0.04883 -0.810547,-4.71875 a 1.6,1.6 0 0 1 -0.01758,-0.158204 1.6,1.6 0 0 1 -0.0039,-0.160156 1.6,1.6 0 0 1 0.01367,-0.158203 1.6,1.6 0 0 1 0.0293,-0.158203 1.6,1.6 0 0 1 0.04297,-0.154297 1.6,1.6 0 0 1 0.06055,-0.148437 1.6,1.6 0 0 1 0.07422,-0.140625 1.6,1.6 0 0 1 0.08789,-0.134766 1.6,1.6 0 0 1 0.09961,-0.123047 1.6,1.6 0 0 1 0.07227,-0.07617 l 3.42968,-3.3418326 -0.02539,-0.080078 -4.738281,-0.6894531 A 1.6,1.6 0 0 1 13.839844,7.5488281 1.6,1.6 0 0 1 13.6875,7.5019531 1.6,1.6 0 0 1 13.539062,7.4414062 1.6,1.6 0 0 1 13.398438,7.3632812 1.6,1.6 0 0 1 13.267578,7.2734375 1.6,1.6 0 0 1 13.144531,7.171875 1.6,1.6 0 0 1 13.03125,7.0566406 1.6,1.6 0 0 1 12.93164,6.9316406 1.6,1.6 0 0 1 12.8457,6.7988281 1.6,1.6 0 0 1 12.79687,6.7070311 L 10.677734,2.4140625 a 0.04,0.04 0 0 0 -0.002,-0.00391 0.04,0.04 0 0 0 -0.002,-0.00195 0.04,0.04 0 0 0 -0.002,-0.00391 0.04,0.04 0 0 0 -0.0039,-0.00391 0.04,0.04 0 0 0 -0.002,-0.00195 0.04,0.04 0 0 0 -0.0039,-0.00195 0.04,0.04 0 0 0 -0.0039,-0.00195 0.04,0.04 0 0 0 -0.002,-0.00195 0.04,0.04 0 0 0 -0.0039,-0.00195 0.04,0.04 0 0 0 -0.0039,0 0.04,0.04 0 0 0 -0.0039,0 0.04,0.04 0 0 0 -0.0039,0 0.04,0.04 0 0 0 -0.0039,0 z"
	   id="Fon" stroke-width="0" fill="#fff"/>
</svg>
